<svg width="40" height="40" xmlns="http://www.w3.org/2000/svg">
    <g>
     <title>Layer 1</title>
     <path transform="rotate(-88.9614 25.0958 20.7646)" stroke="url(#svg_17)" id="svg_3" d="m21.85194,36.57187c0.21003,-2.72945 0.70237,-5.54948 1.80127,-7.89163c1.05012,-1.53812 2.74505,-1.49213 4.16059,-2.01834c-1.98337,-0.65124 -3.83475,-1.80432 -5.65129,-3.02436c-2.97334,-1.58025 -5.99989,0.69665 -8.68001,2.29403c-1.98993,1.16426 -3.95835,2.53777 -6.1011,3.1143c-1.40561,-1.19581 -0.23169,-4.58837 0.75673,-6.02081c1.25147,-1.97823 3.10394,-3.00024 4.46067,-4.80668c0.59685,-2.55154 -2.15321,-3.17929 -3.38872,-4.18184c-1.91593,-1.06218 -3.54384,-2.80192 -5.00038,-4.74436c3.38256,-0.24135 6.37474,2.33055 9.42689,3.89211c1.65086,0.73173 3.20788,1.76088 4.75146,2.7789c0.70771,-0.00438 3.10919,0.63893 2.86986,-0.34918c-1.80012,-0.09773 -1.61968,-2.94912 -0.40829,-4.0796c1.78051,-1.71562 3.95113,-2.72847 5.43341,-5.00094c0.65029,-0.6392 0.9925,-2.20271 1.5421,-2.69605c2.36983,2.26786 3.75636,5.84529 5.06386,9.23778c2.12909,0.58901 4.27931,1.06676 6.4494,1.21095c2.1192,1.18645 3.92866,3.25422 5.58792,5.35413c1.25734,1.16149 1.59243,4.32199 -0.1167,4.95603c-4.21673,2.78106 -8.92512,3.63122 -13.56859,3.89849c-0.65421,-0.05648 -1.22384,0.03145 -1.22822,1.0846c-0.409,1.49991 -0.57619,3.24292 -1.34615,4.46417c-0.84975,-0.26611 -0.04473,-3.33109 -0.91743,-1.87482c-1.7166,2.28167 -3.78126,3.99285 -5.89728,5.5231c0,-0.37332 0,-0.74668 0,-1.11998l0,0z" stroke-width="6" fill=""/>
     <text font-weight="bold" transform="matrix(0.737927 0 0 0.823315 -0.494426 3.92971)" stroke="url(#svg_17)" xml:space="preserve" text-anchor="start" font-family="'Lexend'" font-size="24" id="svg_5" y="36.60609" x="0.18465" stroke-width="0" fill="">o</text>
     <text style="cursor: move;" font-weight="bold" transform="matrix(0.561833 0 0 0.316466 9.36621 -3.57409)" stroke="url(#svg_17)" xml:space="preserve" text-anchor="start" font-family="'Oswald'" font-size="24" id="svg_6" y="117.79303" x="0.57335" stroke-width="0" fill="">2</text>
    </g>
   
   </svg>