<svg width="40" height="40" xmlns="http://www.w3.org/2000/svg">
    <g>
     <title>Layer 1</title>
     <path stroke="url(#svg_17)" style="vector-effect: non-scaling-stroke;" transform="rotate(180 10.2488 21.5807)" fill="" stroke-width="2" d="m17.83847,15.72774c-0.14611,-0.58471 -0.34356,-0.58187 0.29092,-2.17358l2.18512,-4.97001c0.02764,-0.07204 0.26326,-0.58187 0.25273,-1.33607c0.01974,-0.74712 -0.41201,-1.82049 -1.47298,-2.31905c-1.54275,-0.78385 -1.5401,-0.78667 -3.08547,-1.56346c-1.03201,-0.55929 -2.08112,-0.24151 -2.60503,0.25281c-0.55286,0.47031 -0.76874,0.98863 -0.80165,1.05925l-2.18906,4.96577c-0.74241,1.53097 -0.8622,1.36997 -1.37951,1.61995c-0.61736,0.18219 -1.63751,0.78808 -2.34965,2.56339c-1.45849,3.31334 -1.45849,3.31334 -1.45849,3.31334l-0.36331,0.82762l1.5401,0.78102l-4.73747,10.76623c-0.50021,1.16941 -0.2185,2.02812 -0.2185,2.86986c0.01316,0.88553 -0.10135,2.13122 -1.15311,4.5336l-0.36331,0.82762l4.62953,2.34589l0.36331,-0.82621c1.06359,-2.39955 1.88367,-3.28509 2.52999,-3.83731c0.60552,-0.5381 1.40321,-0.8474 1.92843,-2.00552l4.73747,-10.75916l1.54275,0.78243l0.36725,-0.83186c0,0 0,0 1.45455,-3.31193c0.82533,-1.72022 0.61604,-2.94189 0.35541,-3.57461l-0.00002,0zm-10.00149,16.91552c-0.20535,0.49855 -0.54365,0.62001 -1.43612,1.34878c-0.75952,0.63272 -1.66384,1.65526 -2.64451,3.67206l-1.56774,-0.79373c0.82666,-2.09026 0.98726,-3.49411 0.96093,-4.52371c-0.04081,-1.2019 -0.16849,-1.55922 0.05924,-2.04647l4.73747,-10.7634l4.62953,2.34729l-4.73879,10.75916l-0.00002,0.00002z" id="svg_78"/>
     <g transform="rotate(-0.566305 27.4633 20.1605)" stroke="null" id="svg_1">
      <path stroke="url(#svg_17)" fill="" stroke-width="6" d="m33.62399,23.15238l-0.00445,-18.97608c-0.00057,-2.45392 -2.57273,-3.77724 -5.87849,-3.7765c-3.31291,0.00074 -6.11082,1.32527 -6.11024,3.77919l0.00441,18.82619c-3.76692,1.53156 -6.32424,4.49939 -6.32344,7.90833c0.00117,4.97681 5.67408,9.00925 12.38398,9.00774c6.71347,-0.00151 11.9202,-4.03639 11.91903,-9.01319c0.00102,-3.30682 -2.40922,-6.1913 -5.99081,-7.75569l0,0.00001zm-6.04211,14.66458c-5.59724,0.00126 -10.26921,-2.75213 -10.27018,-6.90654c-0.00064,-2.74839 2.02371,-5.27969 5.28265,-6.60555l1.03921,-0.41939l-0.00462,-19.70828c-0.00038,-1.63286 1.79372,-2.03134 3.99935,-2.03184c2.20205,-0.00049 3.99275,0.39719 3.99314,2.03005l0.00464,19.81969l0.98037,0.42954c3.1415,1.37349 5.02034,3.79382 5.02097,6.48119c-0.00261,4.15441 -4.44471,6.90984 -10.04553,6.9111l0,0.00003z" id="svg_72"/>
      <path stroke="url(#svg_17)" fill="" stroke-width="6" d="m18.60223,27.4737l19.46247,0.55992c1.34566,2.62378 -1.49914,7.29352 -1.83957,7.93268l-5.11894,3.3629l-3.68889,0.13924c-8.37468,1.15422 -12.24591,-5.32795 -11.3165,-7.89896c0.92941,-2.571 0.87626,-4.13345 2.50144,-4.0958z" id="svg_75"/>
     </g>
     <path stroke="url(#svg_17)" id="svg_6" d="m0.25371,9.0444l0,0c0,-2.26151 1.71753,-4.09483 3.83621,-4.09483l0,0c1.01743,0 1.99318,0.43142 2.71261,1.19935c0.71943,0.76793 1.1236,1.80946 1.1236,2.89548l0,0c0,2.26151 -1.71753,4.09483 -3.83621,4.09483l0,0c-2.11868,0 -3.83621,-1.83332 -3.83621,-4.09483zm1.9181,0l0,0c0,1.13076 0.85876,2.04741 1.9181,2.04741c1.05934,0 1.9181,-0.91666 1.9181,-2.04741c0,-1.13076 -0.85876,-2.04741 -1.9181,-2.04741l0,0c-1.05934,0 -1.9181,0.91666 -1.9181,2.04741z" stroke-width="6" fill=""/>
     <path stroke="url(#svg_17)" id="svg_7" d="m5.91621,2.76121l0,0c0,-1.45213 1.19648,-2.62931 2.67241,-2.62931l0,0c0.70877,0 1.38851,0.27702 1.88968,0.77011c0.50118,0.49309 0.78273,1.16187 0.78273,1.8592l0,0c0,1.45213 -1.19648,2.62931 -2.67241,2.62931l0,0c-1.47593,0 -2.67241,-1.17718 -2.67241,-2.62931zm1.33621,0l0,0c0,0.72606 0.59824,1.31466 1.33621,1.31466c0.73797,0 1.33621,-0.58859 1.33621,-1.31466c0,-0.72606 -0.59824,-1.31466 -1.33621,-1.31466l0,0c-0.73797,0 -1.33621,0.58859 -1.33621,1.31466z" stroke-width="6" fill=""/>
    </g>
   
   </svg>