<svg width="40" height="40" xmlns="http://www.w3.org/2000/svg" stroke="null">
    <g stroke="null">
        <title stroke="null">Layer 1</title>
        <path id="svg_115" d="m11.08053,39.56134c-6.29642,-2.09588 -10.80948,-8.75548 -9.78384,-14.43733c0.64674,-3.58284 14.29125,-25.33316 15.48284,-24.68077c0.38892,0.21293 3.84984,5.28384 7.69093,11.2687c6.15302,9.58711 6.98379,11.37481 6.98379,15.02807c0,7.40502 -6.68998,13.47056 -14.72268,13.3485c-2.34406,-0.03563 -4.88702,-0.27285 -5.65104,-0.52716l0,0l0,-0.00001zm6.3083,-3.72445c0.20841,-0.95869 -0.27843,-1.42623 -1.48512,-1.42623c-2.75016,0 -6.56507,-3.08557 -7.41738,-5.99931c-0.90918,-3.10817 -3.31983,-3.47782 -3.6759,-0.56367c-0.68601,5.61453 11.42268,13.30539 12.5784,7.98921l0,0z" stroke-width="6" fill="" stroke="url(#svg_17)" />
        <text transform="matrix(0.732343 0 0 0.670372 7.59686 0.452377)" xml:space="preserve" text-anchor="start" font-family="'Roboto Slab'" font-size="24" id="svg_117" y="18.38836" x="23.65554" stroke-width="6" fill="" font-weight="bold" stroke="url(#svg_17)">o</text>
        <text xml:space="preserve" text-anchor="start" font-family="'Yanone Kaffeesatz'" font-size="24" id="svg_118" y="-12.1686" x="10.93486" stroke-width="9" fill="" font-weight="normal" stroke="url(#svg_17)">2</text>
        <text fill="" stroke-width="9" x="43.35719" y="-9.75355" id="svg_2" font-size="24" font-family="'Yanone Kaffeesatz'" text-anchor="start" xml:space="preserve" transform="matrix(0.486241 0 0 0.350727 12.8292 9.71395)" font-weight="bold" font-style="normal" stroke="url(#svg_17)">2</text>
    </g>

</svg>