<!-- <svg width="40" height="40" xmlns="http://www.w3.org/2000/svg">

    <g>
        <title>Layer 1</title>
        <path id="svg_67" d="m22.07679,2.61196l0,0c0,-0.76212 0.59723,-1.37994 1.33394,-1.37994l0,0c0.35378,0 0.69308,0.14539 0.94324,0.40418c0.25016,0.25879 0.3907,0.60978 0.3907,0.97577l0,0c0,0.76212 -0.59723,1.37994 -1.33394,1.37994l0,0c-0.73672,0 -1.33394,-0.61782 -1.33394,-1.37994zm0.66697,0l0,0c0,0.38106 0.29861,0.68997 0.66697,0.68997c0.36836,0 0.66697,-0.30891 0.66697,-0.68997c0,-0.38106 -0.29861,-0.68997 -0.66697,-0.68997l0,0c-0.36836,0 -0.66697,0.30891 -0.66697,0.68997z" stroke-width="6" stroke="url(#svg_17)" fill="" />
        <path transform="rotate(-1.44051 19.7735 7.68676)" stroke="url(#svg_17)" id="svg_68" d="m17.51056,7.68676l0,0c0,-1.19898 1.01315,-2.17094 2.26294,-2.17094l0,0c0.60017,0 1.17576,0.22872 1.60014,0.63585c0.42438,0.40713 0.6628,0.95932 0.6628,1.53509l0,0c0,1.19898 -1.01315,2.17094 -2.26294,2.17094l0,0c-1.24979,0 -2.26294,-0.97196 -2.26294,-2.17094zm1.13147,0l0,0c0,0.59949 0.50658,1.08547 1.13147,1.08547c0.62489,0 1.13147,-0.48598 1.13147,-1.08547c0,-0.59949 -0.50658,-1.08547 -1.13147,-1.08547l0,0c-0.62489,0 -1.13147,0.48598 -1.13147,1.08547z" stroke-width="6" fill="" />
        <path stroke="url(#svg_17)" id="svg_69" d="m25.18028,7.2323l0,0c0,-0.99575 0.78258,-1.80296 1.74794,-1.80296l0,0c0.46358,0 0.90818,0.18995 1.23598,0.52807c0.3278,0.33812 0.51196,0.79671 0.51196,1.27488l0,0c0,0.99575 -0.78258,1.80296 -1.74794,1.80296l0,0c-0.96536,0 -1.74794,-0.80721 -1.74794,-1.80296zm0.87397,0l0,0c0,0.49787 0.39129,0.90148 0.87397,0.90148c0.48268,0 0.87397,-0.40361 0.87397,-0.90148c0,-0.49787 -0.39129,-0.90148 -0.87397,-0.90148l0,0c-0.48268,0 -0.87397,0.40361 -0.87397,0.90148z" stroke-width="6" fill="" />
        <path stroke="url(#svg_17)" id="svg_72" d="m29.3734,27.20731l0,-13.95824c0,-1.80503 -2.05417,-2.77885 -4.69453,-2.77885c-2.64607,0 -4.88105,0.97382 -4.88105,2.77885l0,13.84798c-3.00898,1.12595 -5.05211,3.30857 -5.05211,5.81609c0,3.66079 4.53029,6.62787 9.88959,6.62787c5.36215,0 9.5216,-2.96708 9.5216,-6.62787c0.00143,-2.4324 -1.92312,-4.55453 -4.7835,-5.70584zm-4.82867,10.78583c-4.4706,0 -8.20166,-2.02608 -8.20166,-5.08194c0,-2.02163 1.61736,-3.88325 4.22057,-4.85797l0.83011,-0.30832l0,-14.49682c0,-1.20108 1.43305,-1.4939 3.19472,-1.4939c1.75881,0 3.189,0.29282 3.189,1.4939l0,14.57877l0.78296,0.31612c2.50891,1.01082 4.00911,2.79145 4.00911,4.7682c-0.00286,3.05586 -3.55135,5.08194 -8.02481,5.08194z" stroke-width="6" fill="" />
        <path stroke="url(#svg_17)" id="svg_75" d="m17.97305,31.65496l12.85348,0l0,0c1.68384,0 3.04886,0.28832 3.04886,0.64397c0,0.35566 -1.36502,0.64397 -3.04886,0.64397l-12.85348,0l0,0c-1.68384,0 -3.04886,-0.28832 -3.04886,-0.64397c0,-0.35566 1.36502,-0.64397 3.04886,-0.64397z" stroke-width="6" fill="" />
        <path transform="rotate(180 10.335 24.4255)" stroke="url(#svg_17)" id="svg_78" d="m15.07137,20.64409c-0.09118,-0.37776 -0.2144,-0.37593 0.18155,-1.40428l1.36365,-3.21096c0.01725,-0.04654 0.16429,-0.37593 0.15772,-0.86319c0.01232,-0.48269 -0.25712,-1.17616 -0.91923,-1.49826c-0.96277,-0.50642 -0.96112,-0.50824 -1.92553,-1.0101c-0.64404,-0.36134 -1.29875,-0.15603 -1.6257,0.16333c-0.34502,0.30385 -0.47974,0.63872 -0.50028,0.68435l-1.36611,3.20822c-0.46331,0.98911 -0.53807,0.88509 -0.8609,1.0466c-0.38527,0.11771 -1.02191,0.50915 -1.46633,1.65612c-0.91019,2.14064 -0.91019,2.14064 -0.91019,2.14064l-0.22673,0.5347l0.96112,0.50459l-2.95648,6.95571c-0.31216,0.75552 -0.13636,1.3103 -0.13636,1.85412c0.00821,0.57211 -0.06325,1.37691 -0.71961,2.92901l-0.22673,0.5347l2.88912,1.5156l0.22673,-0.53379c0.66375,-1.55027 1.17553,-2.12239 1.57887,-2.47916c0.37788,-0.34765 0.87569,-0.54748 1.20346,-1.2957l2.95648,-6.95114l0.96277,0.5055l0.22919,-0.53744c0,0 0,0 0.90773,-2.13973c0.51506,-1.11138 0.38445,-1.90066 0.2218,-2.30944zm-6.24156,10.92857c-0.12815,0.3221 -0.33927,0.40057 -0.89623,0.8714c-0.47399,0.40878 -1.03834,1.06941 -1.65034,2.3724l-0.97837,-0.5128c0.51589,-1.35045 0.61611,-2.25743 0.59968,-2.92262c-0.02547,-0.77651 -0.10515,-1.00736 0.03697,-1.32216l2.95648,-6.95388l2.88912,1.51651l-2.9573,6.95114z" stroke-width="2" fill="" />
    </g>
</svg> -->
<svg width="40" height="40" xmlns="http://www.w3.org/2000/svg">

    <g>
        <title>Layer 1</title>
        <path stroke="url(#svg_17)" id="svg_115" d="m11.08053,39.56134c-6.29642,-2.09588 -10.80948,-8.75548 -9.78384,-14.43733c0.64674,-3.58284 14.29125,-25.33316 15.48284,-24.68077c0.38892,0.21293 3.84984,5.28384 7.69093,11.2687c6.15302,9.58711 6.98379,11.37481 6.98379,15.02807c0,7.40502 -6.68998,13.47056 -14.72268,13.3485c-2.34406,-0.03563 -4.88702,-0.27285 -5.65104,-0.52716l0,0zm6.3083,-3.72445c0.20841,-0.95869 -0.27843,-1.42623 -1.48512,-1.42623c-2.75016,0 -6.56507,-3.08557 -7.41738,-5.99931c-0.90918,-3.10817 -3.31983,-3.47782 -3.6759,-0.56367c-0.68601,5.61453 11.42268,13.30539 12.5784,7.98921l0,0z" stroke-width="6" fill="" />
        <text transform="matrix(0.829586 0 0 0.872588 4.42065 1.35314)" stroke="url(#svg_17)" xml:space="preserve" text-anchor="start" font-family="'Roboto Slab'" font-size="24" id="svg_117" y="16.3411" x="24.96742" stroke-width="6" fill="">o</text>
        <text transform="matrix(0.257433 0 0 0.187166 30.8653 0.960333)" stroke="url(#svg_17)" xml:space="preserve" text-anchor="start" font-family="'Oswald'" font-size="24" id="svg_118" y="28.94862" x="13.90546" stroke-width="6" fill="">2</text>
    </g>
</svg>